<svg width="1088" height="1087" viewBox="0 0 1088 1087" fill="none" xmlns="http://www.w3.org/2000/svg">
    <rect x="1082" width="7" height="1529" transform="rotate(45 1082 0)" fill="black" />
    <rect x="1" y="5" width="7" height="1529" transform="rotate(-45 1 5)" fill="black" />
    <rect x="540" y="4" width="8" height="1079" fill="black" />
    <rect x="1085" y="540" width="7" height="1083" transform="rotate(90 1085 540)" fill="black" />
    <path fill-rule="evenodd" clip-rule="evenodd"
        d="M544 937C761.6 937 938 760.6 938 543C938 325.4 761.6 149 544 149C326.4 149 150 325.4 150 543C150 760.6 326.4 937 544 937ZM544 930C757.734 930 931 756.734 931 543C931 329.266 757.734 156 544 156C330.266 156 157 329.266 157 543C157 756.734 330.266 930 544 930Z"
        fill="black" />
    <path fill-rule="evenodd" clip-rule="evenodd"
        d="M545.665 836.898C707.866 836.077 838.691 703.921 837.87 541.719C837.049 379.517 704.893 248.693 542.692 249.514C380.49 250.335 249.665 382.49 250.486 544.692C251.307 706.894 383.463 837.718 545.665 836.898ZM545.638 831.68C704.958 830.873 833.459 701.065 832.652 541.746C831.846 382.426 702.038 253.925 542.718 254.731C383.398 255.538 254.898 385.346 255.704 544.666C256.511 703.985 386.318 832.486 545.638 831.68Z"
        fill="black" />
</svg>