<svg width="99" height="86" viewBox="0 0 99 86" fill="none" xmlns="http://www.w3.org/2000/svg">
<rect x="0.810069" y="0.632212" width="97.3798" height="84.3798" fill="#101010"/>
<path d="M14.3685 75.3505V67.2961C19.1392 68.7831 28.3088 69.4646 36.1773 69.4646C50.4274 69.4646 54.8263 67.1103 55.322 60.0472C50.4893 60.7287 44.6034 61.1624 40.2665 61.1624C19.0153 61.1624 11.1468 56.02 11.1468 42.5754V30.246H21.0598V40.5308C21.0598 50.1961 25.087 52.9222 40.2665 52.9222C45.3469 52.9222 50.985 52.6124 55.4459 51.9928V30.246H65.359V59.0559C65.359 72.4385 57.5524 77.6429 36.1154 77.6429C29.6099 77.6429 19.6348 76.7136 14.3685 75.3505ZM75.2343 59.4896C75.2343 56.1439 77.5886 53.9135 81.1202 53.9135C84.6517 53.9135 87.0061 56.1439 87.0061 59.4896C87.0061 62.8352 84.6517 65.0657 81.1202 65.0657C77.5886 65.0657 75.2343 62.8352 75.2343 59.4896Z" fill="#C7C7C7"/>
<rect x="0.810069" y="0.632212" width="97.3798" height="84.3798" stroke="#C7C7C7" stroke-width="1.26442"/>
</svg>
