<svg width="271" height="86" viewBox="0 0 271 86" fill="none" xmlns="http://www.w3.org/2000/svg">
<rect x="1.31007" y="0.632212" width="97.3798" height="84.3798" fill="#101010"/>
<path d="M14.8685 75.3505V67.2961C19.6392 68.7831 28.8088 69.4646 36.6773 69.4646C50.9274 69.4646 55.3263 67.1103 55.822 60.0472C50.9893 60.7287 45.1034 61.1624 40.7665 61.1624C19.5153 61.1624 11.6468 56.02 11.6468 42.5754V30.246H21.5598V40.5308C21.5598 50.1961 25.587 52.9222 40.7665 52.9222C45.8469 52.9222 51.485 52.6124 55.9459 51.9928V30.246H65.859V59.0559C65.859 72.4385 58.0524 77.6429 36.6154 77.6429C30.1099 77.6429 20.1348 76.7136 14.8685 75.3505ZM75.7343 59.4896C75.7343 56.1439 78.0886 53.9135 81.6202 53.9135C85.1517 53.9135 87.5061 56.1439 87.5061 59.4896C87.5061 62.8352 85.1517 65.0657 81.6202 65.0657C78.0886 65.0657 75.7343 62.8352 75.7343 59.4896Z" fill="#C7C7C7"/>
<rect x="1.31007" y="0.632212" width="97.3798" height="84.3798" stroke="#C7C7C7" stroke-width="1.26442"/>
<path d="M111.58 20.9862V18.6754C112.948 19.102 115.579 19.2975 117.837 19.2975C121.925 19.2975 123.187 18.622 123.329 16.5956C121.943 16.7912 120.254 16.9156 119.01 16.9156C112.913 16.9156 110.655 15.4402 110.655 11.583V8.04564H113.499V10.9964C113.499 13.7693 114.655 14.5515 119.01 14.5515C120.467 14.5515 122.085 14.4626 123.365 14.2848V8.04564H126.209V16.3112C126.209 20.1507 123.969 21.6439 117.819 21.6439C115.952 21.6439 113.091 21.3772 111.58 20.9862ZM143.938 8.04564V17.4666C142.658 17.9288 139.334 18.2665 136.881 18.2665C131.14 18.2665 128.882 16.7912 128.882 12.9339V8.04564H131.726V12.3473C131.726 15.1203 132.882 15.9024 137.201 15.9024C138.499 15.9024 139.903 15.8313 141.094 15.6891V8.04564H143.938ZM157.783 11.9207C160.645 11.9207 161.853 12.8806 161.853 14.4804C161.853 17.1111 158.654 18.2665 153.606 18.2665C151.348 18.2665 148.006 17.9288 146.727 17.4666V15.2092C147.846 15.7424 150.673 16.009 153.623 16.009C156.77 16.009 159.045 15.6891 159.045 14.5692C159.045 14.0893 158.583 13.9471 157.765 13.9471H150.708C147.775 13.9471 146.46 13.0228 146.46 11.3874C146.46 8.75666 149.748 7.60126 154.743 7.60126C156.521 7.60126 158.903 7.81456 160.485 8.11675V10.2498C159.045 9.94762 157.125 9.82319 154.726 9.82319C151.633 9.82319 149.268 10.1076 149.268 11.263C149.268 11.7963 149.997 11.9207 150.815 11.9207H157.783ZM164.228 17.8221V8.66778C165.774 8.24117 169.863 7.69013 173.134 7.69013C173.382 7.69013 174.04 7.69013 174.289 7.69013V10.0543C171.871 10.0543 169.472 10.1431 167.072 10.4809V17.8221H164.228ZM176.664 6.49918V4.49055H179.508V6.49918H176.664ZM176.664 17.8221V8.04564H179.508V17.8221H176.664ZM182.767 17.8221V4.49055H185.611V17.8221H182.767ZM124.218 38.8221V37.5779C123.436 38.4311 121.552 39.2665 118.601 39.2665C112.557 39.2665 110.353 37.7734 110.353 33.9339C110.353 30.1122 112.628 28.6013 118.565 28.6013C120.77 28.6013 123.027 28.9923 124.218 29.4012V25.4906H127.062V38.8221H124.218ZM113.197 33.9339C113.197 36.1558 114.495 36.9024 118.708 36.9024C122.849 36.9024 124.218 36.138 124.218 33.9339V31.8008C123.08 31.3031 121.018 30.9654 118.708 30.9654C114.459 30.9654 113.197 31.6942 113.197 33.9339ZM130.031 38.8221V25.4906H132.875V28.8679C134.155 28.7079 135.63 28.6013 136.732 28.6013C142.829 28.6013 145.087 30.0766 145.087 33.9339V38.8221H142.243V34.5205C142.243 31.7475 141.087 30.9654 136.732 30.9654C135.47 30.9654 134.066 31.0365 132.875 31.1787V38.8221H130.031ZM148.196 27.4992V25.4906H151.04V27.4992H148.196ZM148.196 38.8221V29.0456H151.04V38.8221H148.196ZM154.994 41.9862V39.6754C156.363 40.102 158.994 40.2975 161.251 40.2975C165.339 40.2975 166.601 39.622 166.744 37.5956C165.357 37.7912 163.669 37.9156 162.424 37.9156C156.327 37.9156 154.07 36.4402 154.07 32.583V29.0456H156.914V31.9964C156.914 34.7693 158.069 35.5515 162.424 35.5515C163.882 35.5515 165.499 35.4626 166.779 35.2848V29.0456H169.623V37.3112C169.623 41.1507 167.384 42.6439 161.233 42.6439C159.367 42.6439 156.505 42.3772 154.994 41.9862ZM185.859 38.8221V37.5779C184.579 38.7155 182.908 39.2665 179.673 39.2665C174.287 39.2665 171.994 37.1335 171.994 33.9339C171.994 30.7343 174.287 28.6013 179.673 28.6013C182.677 28.6013 185.913 28.9212 188.703 29.4012V38.8221H185.859ZM174.838 33.9339C174.838 36.0136 176.332 36.9024 180.349 36.9024C184.508 36.9024 185.859 35.7825 185.859 33.5251V31.3565C185.13 31.2142 182.98 30.9654 180.349 30.9654C176.296 30.9654 174.838 31.8186 174.838 33.9339ZM206.586 29.0456V38.4666C205.306 38.9288 201.982 39.2665 199.529 39.2665C193.788 39.2665 191.53 37.7912 191.53 33.9339V29.0456H194.374V33.3473C194.374 36.1203 195.53 36.9024 199.849 36.9024C201.147 36.9024 202.551 36.8313 203.742 36.6891V29.0456H206.586ZM209.535 38.8221V25.4906H212.379V38.8221H209.535ZM110.798 59.8221V46.4906H113.642V49.8679C114.921 49.7079 116.397 49.6013 117.499 49.6013C123.596 49.6013 125.853 51.0766 125.853 54.9339V59.8221H123.009V55.5205C123.009 52.7475 121.854 51.9654 117.499 51.9654C116.237 51.9654 114.833 52.0365 113.642 52.1787V59.8221H110.798ZM142.08 59.8221V58.5779C140.8 59.7155 139.129 60.2665 135.894 60.2665C130.508 60.2665 128.215 58.1335 128.215 54.9339C128.215 51.7343 130.508 49.6013 135.894 49.6013C138.898 49.6013 142.134 49.9212 144.924 50.4012V59.8221H142.08ZM131.059 54.9339C131.059 57.0136 132.553 57.9024 136.57 57.9024C140.729 57.9024 142.08 56.7825 142.08 54.5251V52.3565C141.351 52.2142 139.201 51.9654 136.57 51.9654C132.517 51.9654 131.059 52.8186 131.059 54.9339ZM163.038 63.3772H160.194V59.9643C158.754 60.1421 157.012 60.2665 155.857 60.2665C149.706 60.2665 147.449 58.7734 147.449 54.9339C147.449 51.0944 149.706 49.6013 155.857 49.6013C157.936 49.6013 161.758 49.939 163.038 50.4012V63.3772ZM160.194 57.6535V52.2142C158.843 52.0543 157.19 51.9654 155.857 51.9654C151.573 51.9654 150.293 52.6942 150.293 54.9339C150.293 57.1558 151.608 57.9024 155.857 57.9024C157.208 57.9024 158.843 57.8135 160.194 57.6535ZM110.798 80.8221V71.4012C112.113 71.0101 115.046 70.6013 117.57 70.6013C120.432 70.6013 122.44 71.0634 123.685 72.0588C124.911 71.2589 126.884 70.6013 129.622 70.6013C134.634 70.6013 136.999 72.1833 136.999 75.9339V80.8221H134.154V76.4316C134.154 73.8719 133.017 72.9654 129.551 72.9654C127.506 72.9654 126.067 73.392 125.053 74.0141C125.231 74.5652 125.32 75.2051 125.32 75.9339V80.8221H122.476V76.4316C122.476 73.8719 121.356 72.9654 117.357 72.9654C116.13 72.9654 114.797 73.0543 113.642 73.1965V80.8221H110.798ZM154.718 71.0456V80.4666C153.438 80.9288 150.114 81.2665 147.661 81.2665C141.919 81.2665 139.662 79.7912 139.662 75.9339V71.0456H142.506V75.3473C142.506 78.1203 143.661 78.9024 147.981 78.9024C149.278 78.9024 150.683 78.8313 151.874 78.6891V71.0456H154.718ZM157.08 73.3031V71.0456H159.604V68.3793H162.448V71.0456H170.482V73.3031H162.448V75.7917C162.448 78.0847 163.515 78.9024 167.994 78.9024C169.345 78.9024 170.838 78.8135 172.1 78.6713V80.9821C170.731 81.1599 169.167 81.2665 167.994 81.2665C161.844 81.2665 159.604 79.7734 159.604 75.9339V73.3031H157.08ZM174.178 73.3031V71.0456H176.702V68.3793H179.546V71.0456H187.581V73.3031H179.546V75.7917C179.546 78.0847 180.613 78.9024 185.092 78.9024C186.443 78.9024 187.936 78.8135 189.199 78.6713V80.9821C187.83 81.1599 186.266 81.2665 185.092 81.2665C178.942 81.2665 176.702 79.7734 176.702 75.9339V73.3031H174.178ZM205.284 80.8221V79.5779C204.004 80.7155 202.333 81.2665 199.098 81.2665C193.712 81.2665 191.419 79.1335 191.419 75.9339C191.419 72.7343 193.712 70.6013 199.098 70.6013C202.102 70.6013 205.337 70.9212 208.128 71.4012V80.8221H205.284ZM194.263 75.9339C194.263 78.0136 195.756 78.9024 199.773 78.9024C203.933 78.9024 205.284 77.7825 205.284 75.5251V73.3565C204.555 73.2142 202.404 72.9654 199.773 72.9654C195.721 72.9654 194.263 73.8186 194.263 75.9339ZM226.242 84.3772H223.398V80.9643C221.958 81.1421 220.216 81.2665 219.06 81.2665C212.91 81.2665 210.653 79.7734 210.653 75.9339C210.653 72.0944 212.91 70.6013 219.06 70.6013C221.14 70.6013 224.962 70.939 226.242 71.4012V84.3772ZM223.398 78.6535V73.2142C222.047 73.0543 220.393 72.9654 219.06 72.9654C214.776 72.9654 213.497 73.6942 213.497 75.9339C213.497 78.1558 214.812 78.9024 219.06 78.9024C220.411 78.9024 222.047 78.8135 223.398 78.6535ZM229.348 69.4992V67.4906H232.192V69.4992H229.348ZM229.348 80.8221V71.0456H232.192V80.8221H229.348ZM250.063 78.2803V80.4666C249.245 80.7333 246.205 81.2665 243.361 81.2665C237.247 81.2665 235.007 79.7734 235.007 75.9339C235.007 72.4677 237.122 70.6013 242.81 70.6013C247.894 70.6013 251.218 71.97 250.614 76.8582H237.958C238.295 78.5824 239.7 79.009 243.361 79.009C246.632 79.009 249.227 78.618 250.063 78.2803ZM237.975 75.0096H247.894C247.876 73.5342 246.134 72.8765 242.81 72.8765C239.824 72.8765 238.367 73.4098 237.975 75.0096ZM253.053 80.8221V71.4012C254.351 70.939 257.657 70.6013 259.755 70.6013C265.852 70.6013 268.109 72.0766 268.109 75.9339V80.8221H265.265V76.5205C265.265 73.7475 264.11 72.9654 259.755 72.9654C258.493 72.9654 257.088 73.0365 255.897 73.1787V80.8221H253.053Z" fill="#C7C7C7"/>
</svg>
