<svg width="470" height="295" viewBox="0 0 470 295" fill="none" xmlns="http://www.w3.org/2000/svg">
    <path
        d="M21.7804 278.925V229.475C51.0706 238.604 107.369 242.788 155.678 242.788C243.169 242.788 270.177 228.333 273.22 184.969C243.549 189.153 207.412 191.816 180.784 191.816C50.3098 191.816 2 160.243 2 77.698V2H62.8628V65.1451C62.8628 124.486 87.5882 141.224 180.784 141.224C211.977 141.224 246.592 139.322 273.98 135.518V2H334.843V178.882C334.843 261.047 286.914 293 155.298 293C115.357 293 54.1137 287.294 21.7804 278.925Z"
        stroke="#DAFFFB" stroke-opacity="0.02" stroke-width="3.55384" />
    <path
        d="M395.474 181.545C395.474 161.004 409.929 147.31 431.611 147.31C453.294 147.31 467.749 161.004 467.749 181.545C467.749 202.086 453.294 215.78 431.611 215.78C409.929 215.78 395.474 202.086 395.474 181.545Z"
        stroke="#DAFFFB" stroke-opacity="0.02" stroke-width="3.55384" />
</svg>