<svg width="198" height="172" viewBox="0 0 198 172" fill="none" xmlns="http://www.w3.org/2000/svg">
<rect x="1.26268" y="1.32835" width="194.728" height="168.728" fill="#001C30"/>
<path d="M28.3423 150.719V134.632C37.8704 137.602 56.1844 138.963 71.8997 138.963C100.36 138.963 109.146 134.261 110.136 120.154C100.484 121.515 88.7287 122.382 80.0667 122.382C37.623 122.382 21.9076 112.111 21.9076 85.2588V60.634H41.7065V81.1753C41.7065 100.479 49.7497 105.924 80.0667 105.924C90.2136 105.924 101.474 105.305 110.384 104.068V60.634H130.182V118.174C130.182 144.903 114.591 155.297 71.7759 155.297C58.7829 155.297 38.8604 153.441 28.3423 150.719ZM149.906 119.041C149.906 112.358 154.608 107.904 161.661 107.904C168.715 107.904 173.417 112.358 173.417 119.041C173.417 125.723 168.715 130.177 161.661 130.177C154.608 130.177 149.906 125.723 149.906 119.041Z" fill="#DAFFFB"/>
<rect x="1.26268" y="1.32835" width="194.728" height="168.728" stroke="#DAFFFB" stroke-width="2.52536"/>
</svg>
